User Type,Username,Date,Text
[T],insinuendo,2010-09-25T13:34Z,"General

Format                           : Matroska
File size                        : 2.18 GiB
Duration                         : 25mn 21s
Overall bit rate                 : 12.3 Mbps
Encoded date                     : UTC 2010-09-24 23:03:00
Writing application              : mkvmerge v2.9.8 ('C'est le bon') built on Aug 13 2009 12:49:06
Writing library                  : libebml v0.7.7 + libmatroska v0.8.1

Video
ID                               : 1
Format                           : AVC
Format/Info                      : Advanced Video Codec
Format profile                   : High@L4.1
Format settings, CABAC           : Yes
Format settings, ReFrames        : 4 frames
Format settings, GOP             : M=4, N=32
Muxing mode                      : Container profile=Unknown@4.1
Codec ID                         : V_MPEG4/ISO/AVC
Duration                         : 25mn 21s
Bit rate                         : 10.8 Mbps
Width                            : 1 488 pixels
Height                           : 1 080 pixels
Display aspect ratio             : 1.378
Frame rate                       : 23.976 fps
Color space                      : YUV
Chroma subsampling               : 4:2:0
Bit depth                        : 8 bits
Scan type                        : Progressive
Bits/(Pixel*Frame)               : 0.281
Stream size                      : 1.87 GiB (86%)
Writing library                  : x264 core 
Language                         : English

Audio
ID                               : 2
Format                           : DTS
Format/Info                      : Digital Theater Systems
Codec ID                         : A_DTS
Duration                         : 25mn 21s
Bit rate mode                    : Constant
Bit rate                         : 1 510 Kbps
Channel(s)                       : 6 channels
Channel positions                : Front: L C R, Side: L R, LFE
Sampling rate                    : 48.0 KHz
Bit depth                        : 24 bits
Stream size                      : 274 MiB (12%)
"
